<?plantuml 1.2026.2?><svg xmlns="http://www.w3.org/2000/svg" xmlns:xlink="http://www.w3.org/1999/xlink" contentStyleType="text/css" data-diagram-type="SEQUENCE" height="1786px" preserveAspectRatio="none" style="width:843px;height:1786px;background:#FFFFFF;" version="1.1" viewBox="0 0 843 1786" width="843px" zoomAndPan="magnify"><title>&lt;color:#0096FF&gt;OIDC Authentication Flow with PKCE S256&lt;/color&gt;</title><defs/><g><text fill="#0096FF" font-family="sans-serif" font-size="14" font-weight="bold" lengthAdjust="spacing" textLength="304.0762" x="265.5945" y="28.5352">OIDC Authentication Flow with PKCE S256</text><g class="participant-lifeline" data-entity-uid="part1" data-qualified-name="user" id="part1-lifeline"><g><title>User</title><rect fill="#000000" fill-opacity="0.00000" height="1569.5645" width="8" x="19.1826" y="121.4648"/><line style="stroke:#AAAAAA;stroke-width:0.5;stroke-dasharray:5,5;" x1="23" x2="23" y1="121.4648" y2="1691.0293"/></g></g><g class="participant-lifeline" data-entity-uid="part2" data-qualified-name="browser" id="part2-lifeline"><g><title>Browser</title><rect fill="#000000" fill-opacity="0.00000" height="1569.5645" width="8" x="210.4434" y="121.4648"/><line style="stroke:#AAAAAA;stroke-width:0.5;stroke-dasharray:5,5;" x1="213.5269" x2="213.5269" y1="121.4648" y2="1691.0293"/></g></g><g class="participant-lifeline" data-entity-uid="part3" data-qualified-name="app" id="part3-lifeline"><g><title>Vapor App</title><rect fill="#000000" fill-opacity="0.00000" height="1569.5645" width="8" x="477.3491" y="121.4648"/><line style="stroke:#AAAAAA;stroke-width:0.5;stroke-dasharray:5,5;" x1="480.8101" x2="480.8101" y1="121.4648" y2="1691.0293"/></g></g><g class="participant-lifeline" data-entity-uid="part4" data-qualified-name="idp" id="part4-lifeline"><g><title>OIDC Provider</title><rect fill="#000000" fill-opacity="0.00000" height="1569.5645" width="8" x="665.4424" y="121.4648"/><line style="stroke:#AAAAAA;stroke-width:0.5;stroke-dasharray:5,5;" x1="668.7402" x2="668.7402" y1="121.4648" y2="1691.0293"/></g></g><g class="participant-lifeline" data-entity-uid="part5" data-qualified-name="session" id="part5-lifeline"><g><title>Session</title><rect fill="#000000" fill-opacity="0.00000" height="1569.5645" width="8" x="761.6187" y="121.4648"/><line style="stroke:#AAAAAA;stroke-width:0.5;stroke-dasharray:5,5;" x1="765.1445" x2="765.1445" y1="121.4648" y2="1691.0293"/></g></g><g class="participant participant-head" data-entity-uid="part1" data-qualified-name="user" id="part1-head"><text fill="#1A1A1A" font-family="sans-serif" font-size="14" lengthAdjust="spacing" textLength="30.3652" x="5" y="118.5117">User</text><ellipse cx="23.1826" cy="53.4766" fill="#E8F4FF" rx="8" ry="8" style="stroke:#181818;stroke-width:0.5;"/><path d="M23.1826,61.4766 L23.1826,88.4766 M10.1826,69.4766 L36.1826,69.4766 M23.1826,88.4766 L10.1826,103.4766 M23.1826,88.4766 L36.1826,103.4766" fill="none" style="stroke:#181818;stroke-width:0.5;"/></g><g class="participant participant-tail" data-entity-uid="part1" data-qualified-name="user" id="part1-tail"><text fill="#1A1A1A" font-family="sans-serif" font-size="14" lengthAdjust="spacing" textLength="30.3652" x="5" y="1703.5645">User</text><ellipse cx="23.1826" cy="1715.0176" fill="#E8F4FF" rx="8" ry="8" style="stroke:#181818;stroke-width:0.5;"/><path d="M23.1826,1723.0176 L23.1826,1750.0176 M10.1826,1731.0176 L36.1826,1731.0176 M23.1826,1750.0176 L10.1826,1765.0176 M23.1826,1750.0176 L36.1826,1765.0176" fill="none" style="stroke:#181818;stroke-width:0.5;"/></g><g class="participant participant-head" data-entity-uid="part2" data-qualified-name="browser" id="part2-head"><rect fill="#F5F5F7" height="30.4883" rx="4" ry="4" style="stroke:#0096FF;stroke-width:0.5;" width="67.833" x="180.5269" y="89.9766"/><text fill="#1A1A1A" font-family="sans-serif" font-size="14" lengthAdjust="spacing" textLength="53.833" x="187.5269" y="110.5117">Browser</text></g><g class="participant participant-tail" data-entity-uid="part2" data-qualified-name="browser" id="part2-tail"><rect fill="#F5F5F7" height="30.4883" rx="4" ry="4" style="stroke:#0096FF;stroke-width:0.5;" width="67.833" x="180.5269" y="1690.0293"/><text fill="#1A1A1A" font-family="sans-serif" font-size="14" lengthAdjust="spacing" textLength="53.833" x="187.5269" y="1710.5645">Browser</text></g><g class="participant participant-head" data-entity-uid="part3" data-qualified-name="app" id="part3-head"><rect fill="#E8F4FF" height="46.9766" rx="4" ry="4" style="stroke:#0096FF;stroke-width:0.5;" width="135.0781" x="413.8101" y="73.4883"/><text fill="#1A1A1A" font-family="sans-serif" font-size="14" lengthAdjust="spacing" textLength="71.7363" x="445.481" y="94.0234">Vapor App</text><text fill="#1A1A1A" font-family="sans-serif" font-size="14" lengthAdjust="spacing" textLength="121.0781" x="420.8101" y="110.5117">(VaporSecurityKit)</text></g><g class="participant participant-tail" data-entity-uid="part3" data-qualified-name="app" id="part3-tail"><rect fill="#E8F4FF" height="46.9766" rx="4" ry="4" style="stroke:#0096FF;stroke-width:0.5;" width="135.0781" x="413.8101" y="1690.0293"/><text fill="#1A1A1A" font-family="sans-serif" font-size="14" lengthAdjust="spacing" textLength="71.7363" x="445.481" y="1710.5645">Vapor App</text><text fill="#1A1A1A" font-family="sans-serif" font-size="14" lengthAdjust="spacing" textLength="121.0781" x="420.8101" y="1727.0527">(VaporSecurityKit)</text></g><g class="participant participant-head" data-entity-uid="part4" data-qualified-name="idp" id="part4-head"><rect fill="#CCE9FF" height="46.9766" rx="4" ry="4" style="stroke:#0096FF;stroke-width:0.5;" width="115.4043" x="611.7402" y="73.4883"/><text fill="#1A1A1A" font-family="sans-serif" font-size="14" lengthAdjust="spacing" textLength="95.2109" x="621.8369" y="94.0234">OIDC Provider</text><text fill="#1A1A1A" font-family="sans-serif" font-size="14" lengthAdjust="spacing" textLength="101.4043" x="618.7402" y="110.5117">(Auth0 / Entra)</text></g><g class="participant participant-tail" data-entity-uid="part4" data-qualified-name="idp" id="part4-tail"><rect fill="#CCE9FF" height="46.9766" rx="4" ry="4" style="stroke:#0096FF;stroke-width:0.5;" width="115.4043" x="611.7402" y="1690.0293"/><text fill="#1A1A1A" font-family="sans-serif" font-size="14" lengthAdjust="spacing" textLength="95.2109" x="621.8369" y="1710.5645">OIDC Provider</text><text fill="#1A1A1A" font-family="sans-serif" font-size="14" lengthAdjust="spacing" textLength="101.4043" x="618.7402" y="1727.0527">(Auth0 / Entra)</text></g><g class="participant participant-head" data-entity-uid="part5" data-qualified-name="session" id="part5-head"><text fill="#1A1A1A" font-family="sans-serif" font-size="14" lengthAdjust="spacing" textLength="50.9482" x="737.1445" y="102.0234">Session</text><text fill="#1A1A1A" font-family="sans-serif" font-size="14" lengthAdjust="spacing" textLength="34.9043" x="745.1665" y="118.5117">Store</text><path d="M747.6187,52.4883 C747.6187,42.4883 765.6187,42.4883 765.6187,42.4883 C765.6187,42.4883 783.6187,42.4883 783.6187,52.4883 L783.6187,78.4883 C783.6187,88.4883 765.6187,88.4883 765.6187,88.4883 C765.6187,88.4883 747.6187,88.4883 747.6187,78.4883 L747.6187,52.4883" fill="#F5F5F7" style="stroke:#181818;stroke-width:0.5;"/><path d="M747.6187,52.4883 C747.6187,62.4883 765.6187,62.4883 765.6187,62.4883 C765.6187,62.4883 783.6187,62.4883 783.6187,52.4883" fill="none" style="stroke:#181818;stroke-width:0.5;"/></g><g class="participant participant-tail" data-entity-uid="part5" data-qualified-name="session" id="part5-tail"><text fill="#1A1A1A" font-family="sans-serif" font-size="14" lengthAdjust="spacing" textLength="50.9482" x="737.1445" y="1703.5645">Session</text><text fill="#1A1A1A" font-family="sans-serif" font-size="14" lengthAdjust="spacing" textLength="34.9043" x="745.1665" y="1720.0527">Store</text><path d="M747.6187,1733.0059 C747.6187,1723.0059 765.6187,1723.0059 765.6187,1723.0059 C765.6187,1723.0059 783.6187,1723.0059 783.6187,1733.0059 L783.6187,1759.0059 C783.6187,1769.0059 765.6187,1769.0059 765.6187,1769.0059 C765.6187,1769.0059 747.6187,1769.0059 747.6187,1759.0059 L747.6187,1733.0059" fill="#F5F5F7" style="stroke:#181818;stroke-width:0.5;"/><path d="M747.6187,1733.0059 C747.6187,1743.0059 765.6187,1743.0059 765.6187,1743.0059 C765.6187,1743.0059 783.6187,1743.0059 783.6187,1733.0059" fill="none" style="stroke:#181818;stroke-width:0.5;"/></g><rect fill="#E8F4FF" height="3" rx="4" ry="4" style="stroke:#E8F4FF;stroke-width:1;" width="836.2651" x="0" y="152.1201"/><line style="stroke:#0096FF;stroke-width:1;" x1="0" x2="836.2651" y1="152.1201" y2="152.1201"/><line style="stroke:#0096FF;stroke-width:1;" x1="0" x2="836.2651" y1="155.1201" y2="155.1201"/><rect fill="#E8F4FF" height="23.3105" rx="4" ry="4" style="stroke:#0096FF;stroke-width:2;" width="176.6143" x="329.8254" y="141.4648"/><text fill="#1A1A1A" font-family="sans-serif" font-size="13" font-weight="bold" lengthAdjust="spacing" textLength="158.3296" x="335.8254" y="158.0332">Login Flow (PKCE S256)</text><g class="message" data-entity-1="part1" data-entity-2="part2" id="msg1"><polygon fill="#1A1A1A" points="202.4434,192.0859,212.4434,196.0859,202.4434,200.0859,206.4434,196.0859" style="stroke:#1A1A1A;stroke-width:1;"/><line style="stroke:#1A1A1A;stroke-width:1.5;" x1="23.1826" x2="208.4434" y1="196.0859" y2="196.0859"/><text fill="#1A1A1A" font-family="sans-serif" font-size="13" lengthAdjust="spacing" textLength="87.4517" x="75.0872" y="191.3438">Click "Sign In"</text></g><g class="message" data-entity-1="part2" data-entity-2="part3" id="msg2"><polygon fill="#1A1A1A" points="469.3491,221.3965,479.3491,225.3965,469.3491,229.3965,473.3491,225.3965" style="stroke:#1A1A1A;stroke-width:1;"/><line style="stroke:#1A1A1A;stroke-width:1.5;" x1="214.4434" x2="475.3491" y1="225.3965" y2="225.3965"/><text fill="#1A1A1A" font-family="sans-serif" font-size="13" lengthAdjust="spacing" textLength="102.2607" x="296.7659" y="220.6543">GET /auth/login</text></g><g class="message" data-entity-1="part3" data-entity-2="part3" id="msg3"><line style="stroke:#1A1A1A;stroke-width:1.5;" x1="481.3491" x2="523.3491" y1="270.0176" y2="270.0176"/><line style="stroke:#1A1A1A;stroke-width:1.5;" x1="523.3491" x2="523.3491" y1="270.0176" y2="283.0176"/><line style="stroke:#1A1A1A;stroke-width:1.5;" x1="482.3491" x2="523.3491" y1="283.0176" y2="283.0176"/><polygon fill="#1A1A1A" points="492.3491,279.0176,482.3491,283.0176,492.3491,287.0176,488.3491,283.0176" style="stroke:#1A1A1A;stroke-width:1;"/><text fill="#1A1A1A" font-family="sans-serif" font-size="13" lengthAdjust="spacing" textLength="141.3813" x="491.9133" y="249.9648">Generate code_verifier</text><text fill="#1A1A1A" font-family="sans-serif" font-size="13" lengthAdjust="spacing" textLength="148.5098" x="488.3491" y="265.2754">(cryptographic random)</text></g><g class="message" data-entity-1="part3" data-entity-2="part3" id="msg4"><line style="stroke:#1A1A1A;stroke-width:1.5;" x1="481.3491" x2="523.3491" y1="327.6387" y2="327.6387"/><line style="stroke:#1A1A1A;stroke-width:1.5;" x1="523.3491" x2="523.3491" y1="327.6387" y2="340.6387"/><line style="stroke:#1A1A1A;stroke-width:1.5;" x1="482.3491" x2="523.3491" y1="340.6387" y2="340.6387"/><polygon fill="#1A1A1A" points="492.3491,336.6387,482.3491,340.6387,492.3491,344.6387,488.3491,340.6387" style="stroke:#1A1A1A;stroke-width:1;"/><text fill="#1A1A1A" font-family="sans-serif" font-size="13" lengthAdjust="spacing" textLength="111.0967" x="502.479" y="307.5859">code_challenge =</text><text fill="#1A1A1A" font-family="sans-serif" font-size="13" lengthAdjust="spacing" textLength="139.3564" x="488.3491" y="322.8965">SHA256(code_verifier)</text></g><g class="message" data-entity-1="part3" data-entity-2="part5" id="msg5"><polygon fill="#1A1A1A" points="753.6187,381.2598,763.6187,385.2598,753.6187,389.2598,757.6187,385.2598" style="stroke:#1A1A1A;stroke-width:1;"/><line style="stroke:#1A1A1A;stroke-width:1.5;" x1="481.3491" x2="759.6187" y1="385.2598" y2="385.2598"/><text fill="#1A1A1A" font-family="sans-serif" font-size="13" lengthAdjust="spacing" textLength="117.2412" x="564.8633" y="365.207">Store code_verifier</text><text fill="#1A1A1A" font-family="sans-serif" font-size="13" lengthAdjust="spacing" textLength="87.3564" x="579.8057" y="380.5176">+ state nonce</text></g><g class="message" data-entity-1="part3" data-entity-2="part2" id="msg6"><polygon fill="#1A1A1A" points="225.4434,410.5703,215.4434,414.5703,225.4434,418.5703,221.4434,414.5703" style="stroke:#1A1A1A;stroke-width:1;"/><line style="stroke:#1A1A1A;stroke-width:1.5;" x1="219.4434" x2="480.3491" y1="414.5703" y2="414.5703"/><text fill="#1A1A1A" font-family="sans-serif" font-size="13" lengthAdjust="spacing" textLength="120.4468" x="287.6729" y="409.8281">302 Redirect to IdP</text></g><g class="message" data-entity-1="part2" data-entity-2="part4" id="msg7"><polygon fill="#1A1A1A" points="657.4424,501.123,667.4424,505.123,657.4424,509.123,661.4424,505.123" style="stroke:#1A1A1A;stroke-width:1;"/><line style="stroke:#1A1A1A;stroke-width:1.5;" x1="214.4434" x2="663.4424" y1="505.123" y2="505.123"/><text fill="#1A1A1A" font-family="sans-serif" font-size="13" lengthAdjust="spacing" textLength="101.0103" x="391.4377" y="439.1387">GET /authorize?</text><text fill="#1A1A1A" font-family="sans-serif" font-size="13" lengthAdjust="spacing" textLength="140.3403" x="375.886" y="454.4492">response_type=code&amp;</text><text fill="#1A1A1A" font-family="sans-serif" font-size="13" lengthAdjust="spacing" textLength="166.6577" x="362.7273" y="469.7598">code_challenge=&lt;hash&gt;&amp;</text><text fill="#1A1A1A" font-family="sans-serif" font-size="13" lengthAdjust="spacing" textLength="202.687" x="344.7126" y="485.0703">code_challenge_method=S256&amp;</text><text fill="#1A1A1A" font-family="sans-serif" font-size="13" lengthAdjust="spacing" textLength="99.7979" x="396.1572" y="500.3809">state=&lt;nonce&gt;</text></g><path d="M674,522.123 L674,554.123 A4,4 0 0 0 678,558.123 L827,558.123 A4,4 0 0 0 831,554.123 L831,528.123 L821,518.123 L678,518.123 A4,4 0 0 0 674,522.123" fill="#E8F4FF" style="stroke:#0096FF;stroke-width:0.5;"/><path d="M821,518.123 L821,526.123 A2,2 0 0 0 823,528.123 L831,528.123 L821,518.123" fill="#E8F4FF" style="stroke:#0096FF;stroke-width:0.5;"/><text fill="#1A1A1A" font-family="sans-serif" font-size="13" lengthAdjust="spacing" textLength="116.9873" x="680" y="535.6914">User authenticates</text><text fill="#1A1A1A" font-family="sans-serif" font-size="13" lengthAdjust="spacing" textLength="136.2651" x="680" y="551.002">(password, MFA, SSO)</text><g class="message" data-entity-1="part4" data-entity-2="part2" id="msg8"><polygon fill="#1A1A1A" points="225.4434,596.3652,215.4434,600.3652,225.4434,604.3652,221.4434,600.3652" style="stroke:#1A1A1A;stroke-width:1;"/><line style="stroke:#1A1A1A;stroke-width:1.5;" x1="219.4434" x2="668.4424" y1="600.3652" y2="600.3652"/><text fill="#1A1A1A" font-family="sans-serif" font-size="13" lengthAdjust="spacing" textLength="111.0776" x="386.4041" y="580.3125">302 Redirect with</text><text fill="#1A1A1A" font-family="sans-serif" font-size="13" lengthAdjust="spacing" textLength="240.1636" x="325.9744" y="595.623">?code=&lt;auth_code&gt;&amp;state=&lt;nonce&gt;</text></g><g class="message" data-entity-1="part2" data-entity-2="part3" id="msg9"><polygon fill="#1A1A1A" points="469.3491,640.9863,479.3491,644.9863,469.3491,648.9863,473.3491,644.9863" style="stroke:#1A1A1A;stroke-width:1;"/><line style="stroke:#1A1A1A;stroke-width:1.5;" x1="214.4434" x2="475.3491" y1="644.9863" y2="644.9863"/><text fill="#1A1A1A" font-family="sans-serif" font-size="13" lengthAdjust="spacing" textLength="127.042" x="284.3752" y="624.9336">GET /auth/callback?</text><text fill="#1A1A1A" font-family="sans-serif" font-size="13" lengthAdjust="spacing" textLength="234.6792" x="234.6699" y="640.2441">code=&lt;auth_code&gt;&amp;state=&lt;nonce&gt;</text></g><rect fill="#E8F4FF" height="3" rx="4" ry="4" style="stroke:#E8F4FF;stroke-width:1;" width="836.2651" x="0" y="673.6416"/><line style="stroke:#0096FF;stroke-width:1;" x1="0" x2="836.2651" y1="673.6416" y2="673.6416"/><line style="stroke:#0096FF;stroke-width:1;" x1="0" x2="836.2651" y1="676.6416" y2="676.6416"/><rect fill="#E8F4FF" height="23.3105" rx="4" ry="4" style="stroke:#0096FF;stroke-width:2;" width="127.5405" x="354.3623" y="662.9863"/><text fill="#1A1A1A" font-family="sans-serif" font-size="13" font-weight="bold" lengthAdjust="spacing" textLength="109.2559" x="360.3623" y="679.5547">Token Exchange</text><g class="message" data-entity-1="part3" data-entity-2="part5" id="msg10"><polygon fill="#1A1A1A" points="753.6187,728.918,763.6187,732.918,753.6187,736.918,757.6187,732.918" style="stroke:#1A1A1A;stroke-width:1;"/><line style="stroke:#1A1A1A;stroke-width:1.5;" x1="481.3491" x2="759.6187" y1="732.918" y2="732.918"/><text fill="#1A1A1A" font-family="sans-serif" font-size="13" lengthAdjust="spacing" textLength="135.4463" x="555.7607" y="712.8652">Retrieve code_verifier</text><text fill="#1A1A1A" font-family="sans-serif" font-size="13" lengthAdjust="spacing" textLength="140.3594" x="553.3042" y="728.1758">+ validate state nonce</text></g><g class="message" data-entity-1="part3" data-entity-2="part4" id="msg11"><polygon fill="#1A1A1A" points="657.4424,788.8496,667.4424,792.8496,657.4424,796.8496,661.4424,792.8496" style="stroke:#1A1A1A;stroke-width:1;"/><line style="stroke:#1A1A1A;stroke-width:1.5;" x1="481.3491" x2="663.4424" y1="792.8496" y2="792.8496"/><text fill="#1A1A1A" font-family="sans-serif" font-size="13" lengthAdjust="spacing" textLength="122.1733" x="514.3091" y="757.4863">POST /oauth/token</text><text fill="#1A1A1A" font-family="sans-serif" font-size="13" lengthAdjust="spacing" textLength="134.8813" x="512.0684" y="772.7969">code=&lt;auth_code&gt;&amp;</text><text fill="#1A1A1A" font-family="sans-serif" font-size="13" lengthAdjust="spacing" textLength="155.8667" x="501.5757" y="788.1074">code_verifier=&lt;verifier&gt;</text></g><path d="M295,809.8496 L295,887.8496 A4,4 0 0 0 299,891.8496 L471,891.8496 A4,4 0 0 0 475,887.8496 L475,815.8496 L465,805.8496 L299,805.8496 A4,4 0 0 0 295,809.8496" fill="#E8F4FF" style="stroke:#0096FF;stroke-width:0.5;"/><path d="M465,805.8496 L465,813.8496 A2,2 0 0 0 467,815.8496 L475,815.8496 L465,805.8496" fill="#E8F4FF" style="stroke:#0096FF;stroke-width:0.5;"/><text fill="#1A1A1A" font-family="sans-serif" font-size="13" lengthAdjust="spacing" textLength="108.6211" x="301" y="823.418">PKCE: IdP verifies</text><text fill="#1A1A1A" font-family="sans-serif" font-size="13" lengthAdjust="spacing" textLength="159.6753" x="301" y="838.7285">SHA256(verifier) matches</text><text fill="#1A1A1A" font-family="sans-serif" font-size="13" lengthAdjust="spacing" textLength="140.5244" x="301" y="854.0391">the original challenge.</text><text fill="#1A1A1A" font-family="sans-serif" font-size="13" lengthAdjust="spacing" textLength="148.3892" x="301" y="869.3496">No client secret needed</text><text fill="#1A1A1A" font-family="sans-serif" font-size="13" lengthAdjust="spacing" textLength="110.0049" x="301" y="884.6602">for public clients.</text><g class="message" data-entity-1="part4" data-entity-2="part3" id="msg12"><polygon fill="#1A1A1A" points="492.3491,914.7129,482.3491,918.7129,492.3491,922.7129,488.3491,918.7129" style="stroke:#1A1A1A;stroke-width:1;"/><line style="stroke:#1A1A1A;stroke-width:1.5;" x1="486.3491" x2="668.4424" y1="918.7129" y2="918.7129"/><text fill="#1A1A1A" font-family="sans-serif" font-size="13" lengthAdjust="spacing" textLength="162.354" x="494.2188" y="913.9707">{ access_token, id_token }</text></g><g class="message" data-entity-1="part3" data-entity-2="part3" id="msg13"><line style="stroke:#1A1A1A;stroke-width:1.5;" x1="481.3491" x2="523.3491" y1="963.334" y2="963.334"/><line style="stroke:#1A1A1A;stroke-width:1.5;" x1="523.3491" x2="523.3491" y1="963.334" y2="976.334"/><line style="stroke:#1A1A1A;stroke-width:1.5;" x1="482.3491" x2="523.3491" y1="976.334" y2="976.334"/><polygon fill="#1A1A1A" points="492.3491,972.334,482.3491,976.334,492.3491,980.334,488.3491,976.334" style="stroke:#1A1A1A;stroke-width:1;"/><text fill="#1A1A1A" font-family="sans-serif" font-size="13" lengthAdjust="spacing" textLength="141.502" x="488.3491" y="943.2813">Validate JWT signature</text><text fill="#1A1A1A" font-family="sans-serif" font-size="13" lengthAdjust="spacing" textLength="112.8931" x="502.6536" y="958.5918">via JWKS endpoint</text></g><g class="message" data-entity-1="part3" data-entity-2="part3" id="msg14"><line style="stroke:#1A1A1A;stroke-width:1.5;" x1="481.3491" x2="523.3491" y1="1020.9551" y2="1020.9551"/><line style="stroke:#1A1A1A;stroke-width:1.5;" x1="523.3491" x2="523.3491" y1="1020.9551" y2="1033.9551"/><line style="stroke:#1A1A1A;stroke-width:1.5;" x1="482.3491" x2="523.3491" y1="1033.9551" y2="1033.9551"/><polygon fill="#1A1A1A" points="492.3491,1029.9551,482.3491,1033.9551,492.3491,1037.9551,488.3491,1033.9551" style="stroke:#1A1A1A;stroke-width:1;"/><text fill="#1A1A1A" font-family="sans-serif" font-size="13" lengthAdjust="spacing" textLength="145.7295" x="488.3491" y="1000.9023">Map claims to Principal</text><text fill="#1A1A1A" font-family="sans-serif" font-size="13" lengthAdjust="spacing" textLength="130.1968" x="496.1155" y="1016.2129">(roles, tenant, email)</text></g><rect fill="#E8F4FF" height="3" rx="4" ry="4" style="stroke:#E8F4FF;stroke-width:1;" width="836.2651" x="0" y="1062.6104"/><line style="stroke:#0096FF;stroke-width:1;" x1="0" x2="836.2651" y1="1062.6104" y2="1062.6104"/><line style="stroke:#0096FF;stroke-width:1;" x1="0" x2="836.2651" y1="1065.6104" y2="1065.6104"/><rect fill="#E8F4FF" height="23.3105" rx="4" ry="4" style="stroke:#0096FF;stroke-width:2;" width="130.1494" x="353.0579" y="1051.9551"/><text fill="#1A1A1A" font-family="sans-serif" font-size="13" font-weight="bold" lengthAdjust="spacing" textLength="111.8647" x="359.0579" y="1068.5234">Session Creation</text><g class="message" data-entity-1="part3" data-entity-2="part3" id="msg15"><line style="stroke:#1A1A1A;stroke-width:1.5;" x1="481.3491" x2="523.3491" y1="1137.1973" y2="1137.1973"/><line style="stroke:#1A1A1A;stroke-width:1.5;" x1="523.3491" x2="523.3491" y1="1137.1973" y2="1150.1973"/><line style="stroke:#1A1A1A;stroke-width:1.5;" x1="482.3491" x2="523.3491" y1="1150.1973" y2="1150.1973"/><polygon fill="#1A1A1A" points="492.3491,1146.1973,482.3491,1150.1973,492.3491,1154.1973,488.3491,1150.1973" style="stroke:#1A1A1A;stroke-width:1;"/><text fill="#1A1A1A" font-family="sans-serif" font-size="13" lengthAdjust="spacing" textLength="121.2212" x="501.1111" y="1101.834">Create SessionData</text><text fill="#1A1A1A" font-family="sans-serif" font-size="13" lengthAdjust="spacing" textLength="146.7451" x="488.3491" y="1117.1445">(HMAC-SHA256 signed</text><text fill="#1A1A1A" font-family="sans-serif" font-size="13" lengthAdjust="spacing" textLength="106.3296" x="508.5569" y="1132.4551">with current key)</text></g><g class="message" data-entity-1="part3" data-entity-2="part5" id="msg16"><polygon fill="#1A1A1A" points="753.6187,1190.8184,763.6187,1194.8184,753.6187,1198.8184,757.6187,1194.8184" style="stroke:#1A1A1A;stroke-width:1;"/><line style="stroke:#1A1A1A;stroke-width:1.5;" x1="481.3491" x2="759.6187" y1="1194.8184" y2="1194.8184"/><text fill="#1A1A1A" font-family="sans-serif" font-size="13" lengthAdjust="spacing" textLength="123.3286" x="561.8196" y="1174.7656">Store session token</text><text fill="#1A1A1A" font-family="sans-serif" font-size="13" lengthAdjust="spacing" textLength="103.2637" x="571.8521" y="1190.0762">in signed cookie</text></g><g class="message" data-entity-1="part3" data-entity-2="part2" id="msg17"><polygon fill="#1A1A1A" points="225.4434,1235.4395,215.4434,1239.4395,225.4434,1243.4395,221.4434,1239.4395" style="stroke:#1A1A1A;stroke-width:1;"/><line style="stroke:#1A1A1A;stroke-width:1.5;" x1="219.4434" x2="480.3491" y1="1239.4395" y2="1239.4395"/><text fill="#1A1A1A" font-family="sans-serif" font-size="13" lengthAdjust="spacing" textLength="175.0557" x="260.3684" y="1219.3867">302 Redirect to /dashboard</text><text fill="#1A1A1A" font-family="sans-serif" font-size="13" lengthAdjust="spacing" textLength="219.5654" x="238.1135" y="1234.6973">Set-Cookie: vsk_session=&lt;token&gt;</text></g><g class="message" data-entity-1="part2" data-entity-2="part1" id="msg18"><polygon fill="#1A1A1A" points="34.1826,1264.75,24.1826,1268.75,34.1826,1272.75,30.1826,1268.75" style="stroke:#1A1A1A;stroke-width:1;"/><line style="stroke:#1A1A1A;stroke-width:1.5;" x1="28.1826" x2="213.4434" y1="1268.75" y2="1268.75"/><text fill="#1A1A1A" font-family="sans-serif" font-size="13" lengthAdjust="spacing" textLength="167.2607" x="35.1826" y="1264.0078">Dashboard (authenticated)</text></g><rect fill="#E8F4FF" height="3" rx="4" ry="4" style="stroke:#E8F4FF;stroke-width:1;" width="836.2651" x="0" y="1297.4053"/><line style="stroke:#0096FF;stroke-width:1;" x1="0" x2="836.2651" y1="1297.4053" y2="1297.4053"/><line style="stroke:#0096FF;stroke-width:1;" x1="0" x2="836.2651" y1="1300.4053" y2="1300.4053"/><rect fill="#E8F4FF" height="23.3105" rx="4" ry="4" style="stroke:#0096FF;stroke-width:2;" width="162.0146" x="337.1252" y="1286.75"/><text fill="#1A1A1A" font-family="sans-serif" font-size="13" font-weight="bold" lengthAdjust="spacing" textLength="143.73" x="343.1252" y="1303.3184">Subsequent Requests</text><g class="message" data-entity-1="part1" data-entity-2="part2" id="msg19"><polygon fill="#1A1A1A" points="202.4434,1337.3711,212.4434,1341.3711,202.4434,1345.3711,206.4434,1341.3711" style="stroke:#1A1A1A;stroke-width:1;"/><line style="stroke:#1A1A1A;stroke-width:1.5;" x1="23.1826" x2="208.4434" y1="1341.3711" y2="1341.3711"/><text fill="#1A1A1A" font-family="sans-serif" font-size="13" lengthAdjust="spacing" textLength="54.6597" x="91.4832" y="1336.6289">Navigate</text></g><g class="message" data-entity-1="part2" data-entity-2="part3" id="msg20"><polygon fill="#1A1A1A" points="469.3491,1381.9922,479.3491,1385.9922,469.3491,1389.9922,473.3491,1385.9922" style="stroke:#1A1A1A;stroke-width:1;"/><line style="stroke:#1A1A1A;stroke-width:1.5;" x1="214.4434" x2="475.3491" y1="1385.9922" y2="1385.9922"/><text fill="#1A1A1A" font-family="sans-serif" font-size="13" lengthAdjust="spacing" textLength="102.4956" x="296.6484" y="1365.9395">GET /dashboard</text><text fill="#1A1A1A" font-family="sans-serif" font-size="13" lengthAdjust="spacing" textLength="192.937" x="251.4277" y="1381.25">Cookie: vsk_session=&lt;token&gt;</text></g><g class="message" data-entity-1="part3" data-entity-2="part3" id="msg21"><line style="stroke:#1A1A1A;stroke-width:1.5;" x1="481.3491" x2="523.3491" y1="1461.2344" y2="1461.2344"/><line style="stroke:#1A1A1A;stroke-width:1.5;" x1="523.3491" x2="523.3491" y1="1461.2344" y2="1474.2344"/><line style="stroke:#1A1A1A;stroke-width:1.5;" x1="482.3491" x2="523.3491" y1="1474.2344" y2="1474.2344"/><polygon fill="#1A1A1A" points="492.3491,1470.2344,482.3491,1474.2344,492.3491,1478.2344,488.3491,1474.2344" style="stroke:#1A1A1A;stroke-width:1;"/><text fill="#1A1A1A" font-family="sans-serif" font-size="13" lengthAdjust="spacing" textLength="124.5537" x="503.6025" y="1410.5605">PrincipalResolution:</text><text fill="#1A1A1A" font-family="sans-serif" font-size="13" lengthAdjust="spacing" textLength="155.0605" x="488.3491" y="1425.8711">validate HMAC signature</text><text fill="#1A1A1A" font-family="sans-serif" font-size="13" lengthAdjust="spacing" textLength="100.7119" x="515.5234" y="1441.1816">(try current key,</text><text fill="#1A1A1A" font-family="sans-serif" font-size="13" lengthAdjust="spacing" textLength="154.0513" x="488.8538" y="1456.4922">fallback to previous key)</text></g><g class="message" data-entity-1="part3" data-entity-2="part3" id="msg22"><line style="stroke:#1A1A1A;stroke-width:1.5;" x1="481.3491" x2="523.3491" y1="1534.166" y2="1534.166"/><line style="stroke:#1A1A1A;stroke-width:1.5;" x1="523.3491" x2="523.3491" y1="1534.166" y2="1547.166"/><line style="stroke:#1A1A1A;stroke-width:1.5;" x1="482.3491" x2="523.3491" y1="1547.166" y2="1547.166"/><polygon fill="#1A1A1A" points="492.3491,1543.166,482.3491,1547.166,492.3491,1551.166,488.3491,1547.166" style="stroke:#1A1A1A;stroke-width:1;"/><text fill="#1A1A1A" font-family="sans-serif" font-size="13" lengthAdjust="spacing" textLength="92.168" x="498.7275" y="1498.8027">Constant-time</text><text fill="#1A1A1A" font-family="sans-serif" font-size="13" lengthAdjust="spacing" textLength="112.9248" x="488.3491" y="1514.1133">HMAC verification</text><text fill="#1A1A1A" font-family="sans-serif" font-size="13" lengthAdjust="spacing" textLength="82.4941" x="503.5645" y="1529.4238">(timing-safe)</text></g><path d="M486,1564.166 L486,1642.166 A4,4 0 0 0 490,1646.166 L707,1646.166 A4,4 0 0 0 711,1642.166 L711,1570.166 L701,1560.166 L490,1560.166 A4,4 0 0 0 486,1564.166" fill="#E8F4FF" style="stroke:#0096FF;stroke-width:0.5;"/><path d="M701,1560.166 L701,1568.166 A2,2 0 0 0 703,1570.166 L711,1570.166 L701,1560.166" fill="#E8F4FF" style="stroke:#0096FF;stroke-width:0.5;"/><text fill="#1A1A1A" font-family="sans-serif" font-size="13" lengthAdjust="spacing" textLength="116.1431" x="492" y="1577.7344">Dual-key rotation:</text><text fill="#1A1A1A" font-family="sans-serif" font-size="13" lengthAdjust="spacing" textLength="162.6333" x="492" y="1593.0449">SESSION_SECRET (current)</text><text fill="#1A1A1A" font-family="sans-serif" font-size="13" lengthAdjust="spacing" textLength="204.3247" x="492" y="1608.3555">SESSION_SECRET_PREVIOUS (old)</text><text fill="#1A1A1A" font-family="sans-serif" font-size="13" lengthAdjust="spacing" textLength="143.0063" x="492" y="1623.666">Old sessions stay valid</text><text fill="#1A1A1A" font-family="sans-serif" font-size="13" lengthAdjust="spacing" textLength="125.4932" x="492" y="1638.9766">during key rotation.</text><g class="message" data-entity-1="part3" data-entity-2="part2" id="msg23"><polygon fill="#1A1A1A" points="225.4434,1669.0293,215.4434,1673.0293,225.4434,1677.0293,221.4434,1673.0293" style="stroke:#1A1A1A;stroke-width:1;"/><line style="stroke:#1A1A1A;stroke-width:1.5;" x1="219.4434" x2="480.3491" y1="1673.0293" y2="1673.0293"/><text fill="#1A1A1A" font-family="sans-serif" font-size="13" lengthAdjust="spacing" textLength="179.0801" x="258.3562" y="1668.2871">200 OK (authorised content)</text></g><?plantuml-src bLPjRnev4Fw-lsAKIhr51qcQk_HQn2OYlBIvD05bqzmN96Hs1x1OxAtj9ULEzzzlx7tfaf0q1o8nzipZcMVccUKNwDzruK8n4RVXpV7nn_V38VYfuckcjeqcl7dNjM_m3NutzdlNlS1VPmPZkp5qB_1dYuRdwHKNALDi3JCMhHPAPYBkoKIgqgvceV5RXYB2hbBouMx9evL0hU7TuMdDo254KWbKyA6s7-ESPOaPIc4A_3pGFVXZfWoFUCg4kP0gHbKuvCd-nE5n5eCFmz_tEdtXS_e8tBaY9skFzIV2J9-03q_f_SUpvYy6BwJ1LrYyEfy-tt02-_yEhwBOrVndXRkcTc0Bx2Py8TOe34Jq1vNd6MuIX4va_Tl59MUZotuFkfbPaX6FcE5Im32H3_30pHB6Lxq1X2Udxpj7pktCyrXawFg3hnhL0J0D6Isg_D8VFG075nHiQJNBrrMnTWplMKgGtJIT2D-jGumonStsYfk6SsTfklyE5_vOIKSYkTjCZk481i8eblloc7nxlS57yesPOJEc4Gv2OebodOYGqa5dgFEjAaOl2E2BNF224ByYem51u7akyTPPcLeRUWc9aP29TxWK1rwPCzbG_6tuDBY38qO17YKMbQYahAf39AqoWn396ASRL7pENKQHsgP6BXHBIUjW9uvSDtPSdKUqP4c2Oe4GK4wVknIclmDL-HHfji5b_lY-Nq4R6uQGr4fLY5MElnsVm2t6N65am4YuZCVrF8dhMfvIyR_nV2805EfK2erJiqqni5U-jTkxaGUT9TFBipqdqpKIMXnOyjsnYp7ek22f9wr6GV75qe2Sso0y0DkWm7uqDchQz5EczGDfhGdNmsuJmd3Ky534JkMUPrlbsMoj8EpTvpQse6EXftPvzdOtckVB7b4wTi2Vbnc-W6ARxqwkKC3WE_7W2XjuJsfuYqPntEmfuuObFBQLhDUpS7Tb6ez22aowo8ozQMzKLJ5AxA1JhahY4vmxtWcSABOgQTk-WCBEybuqPDMBi6OcMheZAX1Gev0WM09LnG_fv4P2b70xmJH62Wq8n1XZEfdJk4Yp6UcjiD27JwleoFy7M1GHMLENOPCoprVmxwxyxaks_lph3ZGfc9bCuKHiEAEjgn08FfLSc1slQvPI08oljTN2M75Xvr92gbKoGTq4WuB6L1DmpNZIS4Kj1W_q5ERJjbPM1-eEiBJhqyGYlC_NtLuhPz65X_54k0bDWr9PYbQuVKxXvLmhYappB4UWkieLVuN8ZsBIvKmoHPU6Q5ezvzU6ZLvD2_2Wuz1tkZzpOFtI5_ow6kE2ZMoMFxSCtKZ_jT7xX-iDs_05-UsNLot0buBRuRagrorgcMIs5cqgUDa8bl5w9_X6RUjiDoTYNkZPSfGgt72PwPr2vFMamMUe2rg6hmd7uUP2o1-t5fglkLYqD9jZu_4qorNLprZI8cZwPMUSLzkgQX26bwERQJZetH8BVX5TuydHT7mxkBySVGt1bqbipqT9NFQ5jXDYcyyBEedfoIiMKB-hBgx7lN9oV0oZgxos96Fjsef-RzWm_WC0?></g></svg>