<?plantuml 1.2026.2?><svg xmlns="http://www.w3.org/2000/svg" xmlns:xlink="http://www.w3.org/1999/xlink" contentStyleType="text/css" data-diagram-type="ACTIVITY" height="632px" preserveAspectRatio="none" style="width:950px;height:632px;background:#FFFFFF;" version="1.1" viewBox="0 0 950 632" width="950px" zoomAndPan="magnify"><title>&lt;color:#0096FF&gt;CompositePolicy: Deny-Precedence Evaluation&lt;/color&gt;</title><defs/><g><rect fill="#FFFFCC" height="69.9219" rx="2.5" ry="2.5" style="stroke:#FFDD88;stroke-width:3;" width="939.0605" x="5" y="5"/><text fill="#000000" font-family="monospace" font-size="10" lengthAdjust="spacing" textLength="535.8252" x="10" y="20">This&#160;syntax&#160;is&#160;deprecated,&#160;you&#160;must&#160;add&#160;&lt;&lt;#F5F5F7&gt;&gt;&#160;at&#160;the&#160;end&#160;of&#160;the&#160;line,&#160;after&#160;the&#160;';'</text><text fill="#000000" font-family="monospace" font-size="10" lengthAdjust="spacing" textLength="535.8252" x="10" y="41.6406">This&#160;syntax&#160;is&#160;deprecated,&#160;you&#160;must&#160;add&#160;&lt;&lt;#CCE9FF&gt;&gt;&#160;at&#160;the&#160;end&#160;of&#160;the&#160;line,&#160;after&#160;the&#160;';'</text><text fill="#000000" font-family="monospace" font-size="10" lengthAdjust="spacing" textLength="535.8252" x="10" y="63.2813">This&#160;syntax&#160;is&#160;deprecated,&#160;you&#160;must&#160;add&#160;&lt;&lt;#E8F4FF&gt;&gt;&#160;at&#160;the&#160;end&#160;of&#160;the&#160;line,&#160;after&#160;the&#160;';'</text><g class="title" data-source-line="15"><text fill="#0096FF" font-family="sans-serif" font-size="14" font-weight="bold" lengthAdjust="spacing" textLength="334.0107" x="299.0249" y="113.457">CompositePolicy: Deny-Precedence Evaluation</text></g><ellipse cx="457.5303" cy="137.4102" fill="#222222" rx="10" ry="10" style="stroke:#222222;stroke-width:1;"/><rect fill="#E8F4FF" height="48.2656" rx="4" ry="4" style="stroke:#0096FF;stroke-width:0.5;" width="252.8516" x="331.1045" y="167.4102"/><text fill="#1A1A1A" font-family="sans-serif" font-size="12" lengthAdjust="spacing" textLength="132.791" x="341.1045" y="189.0117">Receive access request</text><text fill="#1A1A1A" font-family="sans-serif" font-size="12" lengthAdjust="spacing" textLength="232.8516" x="341.1045" y="203.1445">(principal + tenant + resource + action)</text><rect fill="#E8F4FF" height="148.7539" rx="4" ry="4" style="stroke:#0096FF;stroke-width:1.5;" width="913.0605" x="11" y="225.6758"/><path d="M315.8613,225.6758 L315.8613,235.1641 L305.8613,245.1641 L11,245.1641" fill="none" style="stroke:#0096FF;stroke-width:1.5;"/><text fill="#1A1A1A" font-family="sans-serif" font-size="14" font-weight="bold" lengthAdjust="spacing" textLength="151.375" x="14" y="240.2109">Evaluate ALL Policies</text><text fill="#1A1A1A" font-family="sans-serif" font-size="14" lengthAdjust="spacing" textLength="139.0566" x="169.8047" y="240.2109">(order-independent)</text><rect fill="#555555" height="6" rx="2.5" ry="2.5" style="stroke:#555555;stroke-width:1;" width="893.0605" x="21" y="262.1641"/><rect fill="#E8F4FF" height="48.2656" rx="4" ry="4" style="stroke:#0096FF;stroke-width:0.5;" width="111.9336" x="33" y="288.1641"/><text fill="#1A1A1A" font-family="sans-serif" font-size="12" lengthAdjust="spacing" textLength="91.9336" x="43" y="309.7656">SensitivityPolicy</text><text fill="#1A1A1A" font-family="sans-serif" font-size="12" font-style="italic" lengthAdjust="spacing" textLength="63.4219" x="43" y="323.8984">(hard gate)</text><rect fill="#E8F4FF" height="48.2656" rx="4" ry="4" style="stroke:#0096FF;stroke-width:0.5;" width="131.4219" x="154.9336" y="288.1641"/><text fill="#1A1A1A" font-family="sans-serif" font-size="12" lengthAdjust="spacing" textLength="111.4219" x="164.9336" y="309.7656">SharingScopePolicy</text><text fill="#1A1A1A" font-family="sans-serif" font-size="12" font-style="italic" lengthAdjust="spacing" textLength="63.4219" x="164.9336" y="323.8984">(hard gate)</text><rect fill="#E8F4FF" height="48.2656" rx="4" ry="4" style="stroke:#0096FF;stroke-width:0.5;" width="112.3555" x="314.3555" y="288.1641"/><text fill="#1A1A1A" font-family="sans-serif" font-size="12" lengthAdjust="spacing" textLength="92.3555" x="324.3555" y="309.7656">RoleBasedPolicy</text><text fill="#1A1A1A" font-family="sans-serif" font-size="12" font-style="italic" lengthAdjust="spacing" textLength="80.3027" x="324.3555" y="323.8984">(allow refiner)</text><rect fill="#E8F4FF" height="48.2656" rx="4" ry="4" style="stroke:#0096FF;stroke-width:0.5;" width="115.5547" x="454.7109" y="288.1641"/><text fill="#1A1A1A" font-family="sans-serif" font-size="12" lengthAdjust="spacing" textLength="95.5547" x="464.7109" y="309.7656">OwnershipPolicy</text><text fill="#1A1A1A" font-family="sans-serif" font-size="12" font-style="italic" lengthAdjust="spacing" textLength="80.3027" x="464.7109" y="323.8984">(allow refiner)</text><rect fill="#E8F4FF" height="48.2656" rx="4" ry="4" style="stroke:#0096FF;stroke-width:0.5;" width="150.2656" x="598.2656" y="288.1641"/><text fill="#1A1A1A" font-family="sans-serif" font-size="12" lengthAdjust="spacing" textLength="130.2656" x="608.2656" y="309.7656">WorkspaceScopePolicy</text><text fill="#1A1A1A" font-family="sans-serif" font-size="12" font-style="italic" lengthAdjust="spacing" textLength="80.3027" x="608.2656" y="323.8984">(allow refiner)</text><rect fill="#E8F4FF" height="48.2656" rx="4" ry="4" style="stroke:#0096FF;stroke-width:0.5;" width="123.5293" x="776.5313" y="288.1641"/><text fill="#1A1A1A" font-family="sans-serif" font-size="12" lengthAdjust="spacing" textLength="103.5293" x="786.5313" y="309.7656">GroupScopePolicy</text><text fill="#1A1A1A" font-family="sans-serif" font-size="12" font-style="italic" lengthAdjust="spacing" textLength="80.3027" x="786.5313" y="323.8984">(allow refiner)</text><rect fill="#555555" height="6" rx="2.5" ry="2.5" style="stroke:#555555;stroke-width:1;" width="893.0605" x="21" y="356.4297"/><polygon fill="#F5F5F7" points="415.4504,394.4297,499.6101,394.4297,511.6101,407.3848,499.6101,420.3398,415.4504,420.3398,403.4504,407.3848,415.4504,394.4297" style="stroke:#0096FF;stroke-width:0.5;"/><text fill="#1A1A1A" font-family="sans-serif" font-size="11" lengthAdjust="spacing" textLength="55.0645" x="415.4504" y="405.0645">Any policy</text><text fill="#1A1A1A" font-family="sans-serif" font-size="11" lengthAdjust="spacing" textLength="45.9497" x="415.4504" y="418.0195">returned</text><text fill="#1A1A1A" font-family="sans-serif" font-size="11" font-weight="bold" lengthAdjust="spacing" textLength="30.0889" x="464.8806" y="418.0195">.deny</text><text fill="#1A1A1A" font-family="sans-serif" font-size="11" lengthAdjust="spacing" textLength="4.6406" x="494.9695" y="418.0195">?</text><text fill="#1A1A1A" font-family="sans-serif" font-size="11" lengthAdjust="spacing" textLength="17.4829" x="385.9675" y="405.0645">yes</text><text fill="#1A1A1A" font-family="sans-serif" font-size="11" lengthAdjust="spacing" textLength="13.5835" x="511.6101" y="405.0645">no</text><rect fill="#E8F4FF" height="62.3984" rx="4" ry="4" style="stroke:#0096FF;stroke-width:0.5;" width="160.1445" x="210.5939" y="430.3398"/><text fill="#1A1A1A" font-family="sans-serif" font-size="12" lengthAdjust="spacing" textLength="91.418" x="220.5939" y="451.9414">ACCESS DENIED</text><text fill="#1A1A1A" font-family="sans-serif" font-size="12" lengthAdjust="spacing" textLength="140.1445" x="220.5939" y="466.0742">Deny is final, regardless</text><text fill="#1A1A1A" font-family="sans-serif" font-size="12" lengthAdjust="spacing" textLength="127.5879" x="220.5939" y="480.207">of other policy results</text><ellipse cx="290.6661" cy="538.7383" fill="none" rx="11" ry="11" style="stroke:#222222;stroke-width:1;"/><ellipse cx="290.6661" cy="538.7383" fill="#222222" rx="6" ry="6" style="stroke:#222222;stroke-width:1;"/><polygon fill="#F5F5F7" points="569.4132,430.3398,679.3756,430.3398,691.3756,443.2949,679.3756,456.25,569.4132,456.25,557.4132,443.2949,569.4132,430.3398" style="stroke:#0096FF;stroke-width:0.5;"/><text fill="#1A1A1A" font-family="sans-serif" font-size="11" lengthAdjust="spacing" textLength="69.5933" x="569.4132" y="440.9746">Any returned</text><text fill="#1A1A1A" font-family="sans-serif" font-size="11" font-weight="bold" lengthAdjust="spacing" textLength="105.3218" x="569.4132" y="453.9297">.elevationRequired</text><text fill="#1A1A1A" font-family="sans-serif" font-size="11" lengthAdjust="spacing" textLength="4.6406" x="674.735" y="453.9297">?</text><text fill="#1A1A1A" font-family="sans-serif" font-size="11" lengthAdjust="spacing" textLength="17.4829" x="539.9303" y="440.9746">yes</text><text fill="#1A1A1A" font-family="sans-serif" font-size="11" lengthAdjust="spacing" textLength="13.5835" x="691.3756" y="440.9746">no</text><rect fill="#E8F4FF" height="62.3984" rx="4" ry="4" style="stroke:#0096FF;stroke-width:0.5;" width="177.6641" x="400.7384" y="466.25"/><text fill="#1A1A1A" font-family="sans-serif" font-size="12" lengthAdjust="spacing" textLength="126.8262" x="410.7384" y="487.8516">ELEVATION REQUIRED</text><text fill="#1A1A1A" font-family="sans-serif" font-size="12" lengthAdjust="spacing" textLength="157.6641" x="410.7384" y="501.9844">Privilege escalation needed</text><text fill="#1A1A1A" font-family="sans-serif" font-size="12" lengthAdjust="spacing" textLength="153.9727" x="410.7384" y="516.1172">before access can proceed</text><ellipse cx="489.5704" cy="574.6484" fill="none" rx="11" ry="11" style="stroke:#222222;stroke-width:1;"/><ellipse cx="489.5704" cy="574.6484" fill="#222222" rx="6" ry="6" style="stroke:#222222;stroke-width:1;"/><polygon fill="#F5F5F7" points="715.7555,466.25,802.6813,466.25,814.6813,479.2051,802.6813,492.1602,715.7555,492.1602,703.7555,479.2051,715.7555,466.25" style="stroke:#0096FF;stroke-width:0.5;"/><text fill="#1A1A1A" font-family="sans-serif" font-size="11" lengthAdjust="spacing" textLength="63.481" x="715.7555" y="476.8848">At least one</text><text fill="#1A1A1A" font-family="sans-serif" font-size="11" lengthAdjust="spacing" textLength="45.9497" x="715.7555" y="489.8398">returned</text><text fill="#1A1A1A" font-family="sans-serif" font-size="11" font-weight="bold" lengthAdjust="spacing" textLength="32.855" x="765.1857" y="489.8398">.allow</text><text fill="#1A1A1A" font-family="sans-serif" font-size="11" lengthAdjust="spacing" textLength="4.6406" x="798.0406" y="489.8398">?</text><text fill="#1A1A1A" font-family="sans-serif" font-size="11" lengthAdjust="spacing" textLength="17.4829" x="686.2726" y="476.8848">yes</text><text fill="#1A1A1A" font-family="sans-serif" font-size="11" lengthAdjust="spacing" textLength="13.5835" x="814.6813" y="476.8848">no</text><rect fill="#E8F4FF" height="62.3984" rx="4" ry="4" style="stroke:#0096FF;stroke-width:0.5;" width="141.0137" x="608.4025" y="502.1602"/><text fill="#1A1A1A" font-family="sans-serif" font-size="12" lengthAdjust="spacing" textLength="104.5957" x="618.4025" y="523.7617">ACCESS GRANTED</text><text fill="#1A1A1A" font-family="sans-serif" font-size="12" lengthAdjust="spacing" textLength="107.3262" x="618.4025" y="537.8945">At least one policy</text><text fill="#1A1A1A" font-family="sans-serif" font-size="12" lengthAdjust="spacing" textLength="121.0137" x="618.4025" y="552.0273">positively authorised</text><ellipse cx="678.9093" cy="610.5586" fill="none" rx="11" ry="11" style="stroke:#222222;stroke-width:1;"/><ellipse cx="678.9093" cy="610.5586" fill="#222222" rx="6" ry="6" style="stroke:#222222;stroke-width:1;"/><rect fill="#E8F4FF" height="62.3984" rx="4" ry="4" style="stroke:#0096FF;stroke-width:0.5;" width="140.2227" x="769.4161" y="502.1602"/><text fill="#1A1A1A" font-family="sans-serif" font-size="12" lengthAdjust="spacing" textLength="117.7852" x="779.4161" y="523.7617">DENIED BY DEFAULT</text><text fill="#1A1A1A" font-family="sans-serif" font-size="12" lengthAdjust="spacing" textLength="120.2227" x="779.4161" y="537.8945">No policy authorised</text><text fill="#1A1A1A" font-family="sans-serif" font-size="12" lengthAdjust="spacing" textLength="60.8672" x="779.4161" y="552.0273">this action</text><ellipse cx="839.5275" cy="610.5586" fill="none" rx="11" ry="11" style="stroke:#222222;stroke-width:1;"/><ellipse cx="839.5275" cy="610.5586" fill="#222222" rx="6" ry="6" style="stroke:#222222;stroke-width:1;"/><line style="stroke:#1A1A1A;stroke-width:1;" x1="457.5303" x2="457.5303" y1="147.4102" y2="167.4102"/><polygon fill="#1A1A1A" points="453.5303,157.4102,457.5303,167.4102,461.5303,157.4102,457.5303,161.4102" style="stroke:#1A1A1A;stroke-width:1;"/><line style="stroke:#1A1A1A;stroke-width:1;" x1="88.9668" x2="88.9668" y1="268.1641" y2="288.1641"/><polygon fill="#1A1A1A" points="84.9668,278.1641,88.9668,288.1641,92.9668,278.1641,88.9668,282.1641" style="stroke:#1A1A1A;stroke-width:1;"/><line style="stroke:#1A1A1A;stroke-width:1;" x1="220.6445" x2="220.6445" y1="268.1641" y2="288.1641"/><polygon fill="#1A1A1A" points="216.6445,278.1641,220.6445,288.1641,224.6445,278.1641,220.6445,282.1641" style="stroke:#1A1A1A;stroke-width:1;"/><line style="stroke:#1A1A1A;stroke-width:1;" x1="370.5332" x2="370.5332" y1="268.1641" y2="288.1641"/><polygon fill="#1A1A1A" points="366.5332,278.1641,370.5332,288.1641,374.5332,278.1641,370.5332,282.1641" style="stroke:#1A1A1A;stroke-width:1;"/><line style="stroke:#1A1A1A;stroke-width:1;" x1="512.4883" x2="512.4883" y1="268.1641" y2="288.1641"/><polygon fill="#1A1A1A" points="508.4883,278.1641,512.4883,288.1641,516.4883,278.1641,512.4883,282.1641" style="stroke:#1A1A1A;stroke-width:1;"/><line style="stroke:#1A1A1A;stroke-width:1;" x1="673.3984" x2="673.3984" y1="268.1641" y2="288.1641"/><polygon fill="#1A1A1A" points="669.3984,278.1641,673.3984,288.1641,677.3984,278.1641,673.3984,282.1641" style="stroke:#1A1A1A;stroke-width:1;"/><line style="stroke:#1A1A1A;stroke-width:1;" x1="838.2959" x2="838.2959" y1="268.1641" y2="288.1641"/><polygon fill="#1A1A1A" points="834.2959,278.1641,838.2959,288.1641,842.2959,278.1641,838.2959,282.1641" style="stroke:#1A1A1A;stroke-width:1;"/><line style="stroke:#1A1A1A;stroke-width:1;" x1="88.9668" x2="88.9668" y1="336.4297" y2="356.4297"/><polygon fill="#1A1A1A" points="84.9668,346.4297,88.9668,356.4297,92.9668,346.4297,88.9668,350.4297" style="stroke:#1A1A1A;stroke-width:1;"/><line style="stroke:#1A1A1A;stroke-width:1;" x1="220.6445" x2="220.6445" y1="336.4297" y2="356.4297"/><polygon fill="#1A1A1A" points="216.6445,346.4297,220.6445,356.4297,224.6445,346.4297,220.6445,350.4297" style="stroke:#1A1A1A;stroke-width:1;"/><line style="stroke:#1A1A1A;stroke-width:1;" x1="370.5332" x2="370.5332" y1="336.4297" y2="356.4297"/><polygon fill="#1A1A1A" points="366.5332,346.4297,370.5332,356.4297,374.5332,346.4297,370.5332,350.4297" style="stroke:#1A1A1A;stroke-width:1;"/><line style="stroke:#1A1A1A;stroke-width:1;" x1="512.4883" x2="512.4883" y1="336.4297" y2="356.4297"/><polygon fill="#1A1A1A" points="508.4883,346.4297,512.4883,356.4297,516.4883,346.4297,512.4883,350.4297" style="stroke:#1A1A1A;stroke-width:1;"/><line style="stroke:#1A1A1A;stroke-width:1;" x1="673.3984" x2="673.3984" y1="336.4297" y2="356.4297"/><polygon fill="#1A1A1A" points="669.3984,346.4297,673.3984,356.4297,677.3984,346.4297,673.3984,350.4297" style="stroke:#1A1A1A;stroke-width:1;"/><line style="stroke:#1A1A1A;stroke-width:1;" x1="838.2959" x2="838.2959" y1="336.4297" y2="356.4297"/><polygon fill="#1A1A1A" points="834.2959,346.4297,838.2959,356.4297,842.2959,346.4297,838.2959,350.4297" style="stroke:#1A1A1A;stroke-width:1;"/><line style="stroke:#1A1A1A;stroke-width:1;" x1="457.5303" x2="457.5303" y1="215.6758" y2="262.1641"/><polygon fill="#1A1A1A" points="453.5303,252.1641,457.5303,262.1641,461.5303,252.1641,457.5303,256.1641" style="stroke:#1A1A1A;stroke-width:1;"/><line style="stroke:#1A1A1A;stroke-width:1;" x1="290.6661" x2="290.6661" y1="492.7383" y2="527.7383"/><polygon fill="#1A1A1A" points="286.6661,517.7383,290.6661,527.7383,294.6661,517.7383,290.6661,521.7383" style="stroke:#1A1A1A;stroke-width:1;"/><line style="stroke:#1A1A1A;stroke-width:1;" x1="489.5704" x2="489.5704" y1="528.6484" y2="563.6484"/><polygon fill="#1A1A1A" points="485.5704,553.6484,489.5704,563.6484,493.5704,553.6484,489.5704,557.6484" style="stroke:#1A1A1A;stroke-width:1;"/><line style="stroke:#1A1A1A;stroke-width:1;" x1="678.9093" x2="678.9093" y1="564.5586" y2="599.5586"/><polygon fill="#1A1A1A" points="674.9093,589.5586,678.9093,599.5586,682.9093,589.5586,678.9093,593.5586" style="stroke:#1A1A1A;stroke-width:1;"/><line style="stroke:#1A1A1A;stroke-width:1;" x1="839.5275" x2="839.5275" y1="564.5586" y2="599.5586"/><polygon fill="#1A1A1A" points="835.5275,589.5586,839.5275,599.5586,843.5275,589.5586,839.5275,593.5586" style="stroke:#1A1A1A;stroke-width:1;"/><line style="stroke:#1A1A1A;stroke-width:1;" x1="703.7555" x2="678.9093" y1="479.2051" y2="479.2051"/><line style="stroke:#1A1A1A;stroke-width:1;" x1="678.9093" x2="678.9093" y1="479.2051" y2="502.1602"/><polygon fill="#1A1A1A" points="674.9093,492.1602,678.9093,502.1602,682.9093,492.1602,678.9093,496.1602" style="stroke:#1A1A1A;stroke-width:1;"/><line style="stroke:#1A1A1A;stroke-width:1;" x1="814.6813" x2="839.5275" y1="479.2051" y2="479.2051"/><line style="stroke:#1A1A1A;stroke-width:1;" x1="839.5275" x2="839.5275" y1="479.2051" y2="502.1602"/><polygon fill="#1A1A1A" points="835.5275,492.1602,839.5275,502.1602,843.5275,492.1602,839.5275,496.1602" style="stroke:#1A1A1A;stroke-width:1;"/><line style="stroke:#1A1A1A;stroke-width:1;" x1="557.4132" x2="489.5704" y1="443.2949" y2="443.2949"/><line style="stroke:#1A1A1A;stroke-width:1;" x1="489.5704" x2="489.5704" y1="443.2949" y2="466.25"/><polygon fill="#1A1A1A" points="485.5704,456.25,489.5704,466.25,493.5704,456.25,489.5704,460.25" style="stroke:#1A1A1A;stroke-width:1;"/><line style="stroke:#1A1A1A;stroke-width:1;" x1="691.3756" x2="759.2184" y1="443.2949" y2="443.2949"/><line style="stroke:#1A1A1A;stroke-width:1;" x1="759.2184" x2="759.2184" y1="443.2949" y2="466.25"/><polygon fill="#1A1A1A" points="755.2184,456.25,759.2184,466.25,763.2184,456.25,759.2184,460.25" style="stroke:#1A1A1A;stroke-width:1;"/><line style="stroke:#1A1A1A;stroke-width:1;" x1="403.4504" x2="290.6661" y1="407.3848" y2="407.3848"/><line style="stroke:#1A1A1A;stroke-width:1;" x1="290.6661" x2="290.6661" y1="407.3848" y2="430.3398"/><polygon fill="#1A1A1A" points="286.6661,420.3398,290.6661,430.3398,294.6661,420.3398,290.6661,424.3398" style="stroke:#1A1A1A;stroke-width:1;"/><line style="stroke:#1A1A1A;stroke-width:1;" x1="511.6101" x2="624.3944" y1="407.3848" y2="407.3848"/><line style="stroke:#1A1A1A;stroke-width:1;" x1="624.3944" x2="624.3944" y1="407.3848" y2="430.3398"/><polygon fill="#1A1A1A" points="620.3944,420.3398,624.3944,430.3398,628.3944,420.3398,624.3944,424.3398" style="stroke:#1A1A1A;stroke-width:1;"/><line style="stroke:#1A1A1A;stroke-width:1;" x1="457.5303" x2="457.5303" y1="362.4297" y2="394.4297"/><polygon fill="#1A1A1A" points="453.5303,384.4297,457.5303,394.4297,461.5303,384.4297,457.5303,388.4297" style="stroke:#1A1A1A;stroke-width:1;"/><?plantuml-src bLDjJzim4FwUNt623qi3h4pQ2nJ4bD848LMbQykcINmnphMrSEtCTigYQVzz5pU10gKQYPGNtptFFRvx_0vwanYwXgci0xk7XyUVqnJ2t8W5CsLh7tO_nDKDeSFVhlgF_GNXed2OLGkflo2ydRM2mDu9bJF35d3B-DtCw49bvrfgq-IjPSJSYQLmPVTvPdAKVjoSgKs6fivQQTsGrHDieLNsWZRzHFUNBO3jxCRe-pguwibQq9VXsYWqSBIsdk6K5TAbMhdNe8s8RJb3PfnmGglj4X_JNkbeG669SCghrKvDS7Qk5xcsmk5GIy7B3lHGbGT3WnmpL1mXMJ9Pi8hujEsXPpHeHyM2e3EYBB54O9oZjM3mLu7M1PM351Svax073XLJZZuCMbqOOjoZ_8glTH84UQCQTgAeBeKGz_lWzGYqKGIXt_Y1K1dcI0_bMZlDjk1F033LvevU09qnAjgCx-bgGtwvtGxdp6Gm8_9MktrIGu3Dc50ra1A4cesvpl5jo96Ms6KMiwSm9gM-fqrF1VdY5UZLFSNiNEHlX_wWVvipZXiK_m_-WXoI_oUMUhvgyTyW45C8OrL2xb4tog0hoFaPHD5xcamPHLzRuEQe82pHjWXT7xrEV7wUZCVGImQNIO_MAwE1i42LcDodaZDgj2GVKKnFGHE9gSjKtg6JP2inrkayG6aHGgKh_aPHe-H6aHIKkFIc7P4dXS7ifIvIHegEqxIJz9FlyUJoQW2ZvDlrvSZB0nWQyf746G9QpgId0uLqBZ8VlqLgoeFvELEG6yqfVkB3NYWrRqrgBTQ1H6OTQ8LF6-YRlqafD7PlkdWnYWUJMYV0EcFTiZhYppOTKLa2AznS6s4RVGyAdsjy7DbgLj3zILDBu-l-f8uFT3EOHz8wvEOqqjNvVbb6PM8QDE_Lyny0?></g></svg>