<?plantuml 1.2026.2?><svg xmlns="http://www.w3.org/2000/svg" xmlns:xlink="http://www.w3.org/1999/xlink" contentStyleType="text/css" data-diagram-type="DESCRIPTION" height="749px" preserveAspectRatio="none" style="width:985px;height:749px;background:#FFFFFF;" version="1.1" viewBox="0 0 985 749" width="985px" zoomAndPan="magnify"><title>&lt;color:#0096FF&gt;Development Toolchain: Claude + Perplexity + gstack&lt;/color&gt;</title><defs/><g><g class="title" data-source-line="11"><text fill="#0096FF" font-family="sans-serif" font-size="14" font-weight="bold" lengthAdjust="spacing" textLength="388.0078" x="291.8778" y="23.5352">Development Toolchain: Claude + Perplexity + gstack</text></g><!--cluster plan--><g class="cluster" data-qualified-name="plan" data-source-line="13" id="ent0002"><rect fill="#E8F4FF" height="398.68" rx="4" ry="4" style="stroke:#0096FF;stroke-width:1;" width="537" x="7" y="44.4883"/><text fill="#1A1A1A" font-family="sans-serif" font-size="14" font-weight="bold" lengthAdjust="spacing" textLength="157.3564" x="196.8218" y="60.0234">Plan Refinement Loop</text></g><!--cluster impl--><g class="cluster" data-qualified-name="impl" data-source-line="27" id="ent0014"><rect fill="#F5F5F7" height="266.93" rx="4" ry="4" style="stroke:#0096FF;stroke-width:1;" width="467" x="296" y="476.1683"/><text fill="#1A1A1A" font-family="sans-serif" font-size="14" font-weight="bold" lengthAdjust="spacing" textLength="113.4902" x="472.7549" y="491.7034">Implementation</text></g><!--entity question--><g class="entity" data-qualified-name="plan.question" data-source-line="14" id="ent0003"><rect fill="#F5F5F7" height="52.9766" rx="4" ry="4" style="stroke:#0096FF;stroke-width:0.5;" width="106.9326" x="22.53" y="87.7283"/><text fill="#1A1A1A" font-family="sans-serif" font-size="14" lengthAdjust="spacing" textLength="86.9326" x="32.53" y="111.2634">Architectural</text><text fill="#1A1A1A" font-family="sans-serif" font-size="14" lengthAdjust="spacing" textLength="61.0723" x="32.53" y="127.7517">Question</text></g><!--entity claude--><g class="entity" data-qualified-name="plan.claude" data-source-line="15" id="ent0004"><rect fill="#CCE9FF" height="69.4648" rx="4" ry="4" style="stroke:#0096FF;stroke-width:0.5;" width="145.043" x="164.48" y="79.4883"/><text fill="#1A1A1A" font-family="sans-serif" font-size="14" font-weight="bold" lengthAdjust="spacing" textLength="49.4307" x="174.48" y="103.0234">Claude</text><text fill="#1A1A1A" font-family="sans-serif" font-size="14" lengthAdjust="spacing" textLength="125.043" x="174.48" y="119.5117">Generate coherent</text><text fill="#1A1A1A" font-family="sans-serif" font-size="14" lengthAdjust="spacing" textLength="109.1084" x="174.48" y="136">design proposal</text></g><!--entity perplexity--><g class="entity" data-qualified-name="plan.perplexity" data-source-line="16" id="ent0005"><rect fill="#F5F5F7" height="69.4648" rx="4" ry="4" style="stroke:#0096FF;stroke-width:0.5;" width="183.167" x="344.42" y="79.4883"/><text fill="#1A1A1A" font-family="sans-serif" font-size="14" font-weight="bold" lengthAdjust="spacing" textLength="71.8457" x="354.42" y="103.0234">Perplexity</text><text fill="#1A1A1A" font-family="sans-serif" font-size="14" lengthAdjust="spacing" textLength="163.167" x="354.42" y="119.5117">Validate against papers,</text><text fill="#1A1A1A" font-family="sans-serif" font-size="14" lengthAdjust="spacing" textLength="160.6992" x="354.42" y="136">OWASP, CVEs, incidents</text></g><!--entity check--><g class="entity" data-qualified-name="plan.check" data-source-line="17" id="ent0006"><polygon fill="#F5F5F7" points="421.15,261.5683,391.07,231.8383,330.93,231.8383,300.85,261.5683,330.93,291.3083,391.07,291.3083,421.15,261.5683" style="stroke:#181818;stroke-width:0.5;"/><text fill="#1A1A1A" font-family="sans-serif" font-size="14" lengthAdjust="spacing" textLength="59.1514" x="330.9247" y="250.3734">Evidence</text><text fill="#1A1A1A" font-family="sans-serif" font-size="14" lengthAdjust="spacing" textLength="60.1494" x="330.9247" y="266.8617">supports</text><text fill="#1A1A1A" font-family="sans-serif" font-size="14" lengthAdjust="spacing" textLength="51.1191" x="330.9247" y="283.35">design?</text></g><!--entity validated--><g class="entity" data-qualified-name="plan.validated" data-source-line="18" id="ent0007"><rect fill="#0096FF" height="52.9766" rx="4" ry="4" style="stroke:#0096FF;stroke-width:0.5;" width="102.9541" x="309.52" y="374.1883"/><text fill="#1A1A1A" font-family="sans-serif" font-size="14" lengthAdjust="spacing" textLength="63.3691" x="319.52" y="397.7234">Validated</text><text fill="#1A1A1A" font-family="sans-serif" font-size="14" lengthAdjust="spacing" textLength="82.9541" x="319.52" y="414.2117">Architecture</text></g><!--entity build--><g class="entity" data-qualified-name="impl.build" data-source-line="28" id="ent0015"><rect fill="#E8F4FF" height="52.9766" rx="4" ry="4" style="stroke:#0096FF;stroke-width:0.5;" width="97.752" x="312.12" y="519.4083"/><text fill="#1A1A1A" font-family="sans-serif" font-size="14" lengthAdjust="spacing" textLength="71.1895" x="322.12" y="542.9434">swift build</text><text fill="#1A1A1A" font-family="sans-serif" font-size="14" lengthAdjust="spacing" textLength="77.752" x="322.12" y="559.4317">+ swift test</text></g><!--entity qa--><g class="entity" data-qualified-name="impl.qa" data-source-line="29" id="ent0016"><rect fill="#E8F4FF" height="69.4648" rx="4" ry="4" style="stroke:#0096FF;stroke-width:0.5;" width="145.8359" x="445.08" y="511.1683"/><text fill="#1A1A1A" font-family="sans-serif" font-size="14" font-weight="bold" lengthAdjust="spacing" textLength="77.4033" x="455.08" y="534.7034">gstack /qa</text><text fill="#1A1A1A" font-family="sans-serif" font-size="14" lengthAdjust="spacing" textLength="92.873" x="455.08" y="551.1917">Browser-level</text><text fill="#1A1A1A" font-family="sans-serif" font-size="14" lengthAdjust="spacing" textLength="125.8359" x="455.08" y="567.68">integration testing</text></g><!--entity bugs--><g class="entity" data-qualified-name="impl.bugs" data-source-line="30" id="ent0017"><polygon fill="#F5F5F7" points="550.84,692.3683,527.92,670.8783,482.08,670.8783,459.16,692.3683,482.08,713.8583,527.92,713.8583,550.84,692.3683" style="stroke:#181818;stroke-width:0.5;"/><text fill="#1A1A1A" font-family="sans-serif" font-size="14" lengthAdjust="spacing" textLength="32.6074" x="482.0809" y="689.4134">Bugs</text><text fill="#1A1A1A" font-family="sans-serif" font-size="14" lengthAdjust="spacing" textLength="45.8418" x="482.0809" y="705.9017">found?</text></g><!--entity fix--><g class="entity" data-qualified-name="impl.fix" data-source-line="31" id="ent0018"><rect fill="#CCE9FF" height="52.9766" rx="4" ry="4" style="stroke:#0096FF;stroke-width:0.5;" width="89.9932" x="312" y="665.8783"/><text fill="#1A1A1A" font-family="sans-serif" font-size="14" lengthAdjust="spacing" textLength="69.9932" x="322" y="689.4134">Atomic fix</text><text fill="#1A1A1A" font-family="sans-serif" font-size="14" lengthAdjust="spacing" textLength="66.7529" x="322" y="705.9017">+ commit</text></g><!--entity review--><g class="entity" data-qualified-name="impl.review" data-source-line="32" id="ent0019"><rect fill="#CCE9FF" height="69.4648" rx="4" ry="4" style="stroke:#0096FF;stroke-width:0.5;" width="142.9307" x="604.53" y="657.6383"/><text fill="#1A1A1A" font-family="sans-serif" font-size="14" font-weight="bold" lengthAdjust="spacing" textLength="107.6045" x="614.53" y="681.1734">gstack /review</text><text fill="#1A1A1A" font-family="sans-serif" font-size="14" lengthAdjust="spacing" textLength="106.9961" x="614.53" y="697.6617">Diff analysis for</text><text fill="#1A1A1A" font-family="sans-serif" font-size="14" lengthAdjust="spacing" textLength="122.9307" x="614.53" y="714.15">security violations</text></g><!--entity ship--><g class="entity" data-qualified-name="ship" data-source-line="42" id="ent0028"><rect fill="#0096FF" height="36.4883" rx="4" ry="4" style="stroke:#0096FF;stroke-width:0.5;" width="49.0869" x="782.46" y="674.1183"/><text fill="#1A1A1A" font-family="sans-serif" font-size="14" lengthAdjust="spacing" textLength="29.0869" x="792.46" y="697.6534">Ship</text></g><g class="entity" data-qualified-name="GMN30" data-source-line="47" id="ent0031"><path d="M560.09,229.9483 L560.09,293.1905 A4,4 0 0 0 564.09,297.1905 L721.9181,297.1905 A4,4 0 0 0 725.9181,293.1905 L725.9181,235.9483 L715.9181,225.9483 L564.09,225.9483 A4,4 0 0 0 560.09,229.9483" fill="#E8F4FF" style="stroke:#0096FF;stroke-width:0.5;"/><path d="M715.9181,225.9483 L715.9181,233.9483 A2,2 0 0 0 717.9181,235.9483 L725.9181,235.9483 L715.9181,225.9483" fill="#E8F4FF" style="stroke:#0096FF;stroke-width:1;"/><text fill="#1A1A1A" font-family="sans-serif" font-size="13" lengthAdjust="spacing" textLength="144.8281" x="566.09" y="243.5166">Excellent at generating</text><text fill="#1A1A1A" font-family="sans-serif" font-size="13" lengthAdjust="spacing" textLength="112.2837" x="566.09" y="258.8272">coherent designs.</text><text fill="#1A1A1A" font-family="sans-serif" font-size="13" lengthAdjust="spacing" textLength="140.4609" x="566.09" y="274.1377">Blind spot: edge cases</text><text fill="#1A1A1A" font-family="sans-serif" font-size="13" lengthAdjust="spacing" textLength="87.9214" x="566.09" y="289.4483">it hasn't seen.</text></g><g class="entity" data-qualified-name="GMN33" data-source-line="54" id="ent0034"><path d="M761.24,229.9483 L761.24,293.1905 A4,4 0 0 0 765.24,297.1905 L974.7634,297.1905 A4,4 0 0 0 978.7634,293.1905 L978.7634,235.9483 L968.7634,225.9483 L769.52,225.9483 L528.04,146.0383 L761.52,225.9483 L765.24,225.9483 A4,4 0 0 0 761.24,229.9483" fill="#E8F4FF" style="stroke:#0096FF;stroke-width:0.5;"/><path d="M968.7634,225.9483 L968.7634,233.9483 A2,2 0 0 0 970.7634,235.9483 L978.7634,235.9483 L968.7634,225.9483" fill="#E8F4FF" style="stroke:#0096FF;stroke-width:0.5;"/><text fill="#1A1A1A" font-family="sans-serif" font-size="13" lengthAdjust="spacing" textLength="186.6211" x="767.24" y="243.5166">Surfaces real-world evidence.</text><text fill="#1A1A1A" font-family="sans-serif" font-size="13" lengthAdjust="spacing" textLength="158.4248" x="767.24" y="258.8272">Papers, CVEs, production</text><text fill="#1A1A1A" font-family="sans-serif" font-size="13" lengthAdjust="spacing" textLength="104.3618" x="767.24" y="274.1377">incident reports.</text><text fill="#1A1A1A" font-family="sans-serif" font-size="13" lengthAdjust="spacing" textLength="196.5234" x="767.24" y="289.4483">Doesn't synthesise into design.</text></g><!--link question to claude--><g class="link" data-entity-1="ent0003" data-entity-2="ent0004" data-link-type="dependency" data-source-line="20" id="lnk8"><path d="M129.77,114.2183 C141.22,114.2183 146.67,114.2183 158.12,114.2183" fill="none" id="question-to-claude" style="stroke:#1A1A1A;stroke-width:1;"/><polygon fill="#1A1A1A" points="164.12,114.2183,155.12,110.2183,159.12,114.2183,155.12,118.2183,164.12,114.2183" style="stroke:#1A1A1A;stroke-width:1;"/></g><!--link claude to perplexity--><g class="link" data-entity-1="ent0004" data-entity-2="ent0005" data-link-type="dependency" data-source-line="21" id="lnk9"><path d="M309.68,114.2183 C321.2,114.2183 326.71,114.2183 338.22,114.2183" fill="none" id="claude-to-perplexity" style="stroke:#1A1A1A;stroke-width:1;"/><polygon fill="#1A1A1A" points="344.22,114.2183,335.22,110.2183,339.22,114.2183,335.22,118.2183,344.22,114.2183" style="stroke:#1A1A1A;stroke-width:1;"/></g><!--link perplexity to check--><g class="link" data-entity-1="ent0005" data-entity-2="ent0006" data-link-type="dependency" data-source-line="22" id="lnk10"><path d="M418.42,149.2983 C405.51,174.2983 390.9323,202.5668 378.6923,226.2768" fill="none" id="perplexity-to-check" style="stroke:#1A1A1A;stroke-width:1;"/><polygon fill="#1A1A1A" points="375.94,231.6083,383.6228,225.4459,378.2336,227.1654,376.5141,221.7762,375.94,231.6083" style="stroke:#1A1A1A;stroke-width:1;"/></g><!--reverse link claude to check--><g class="link" data-entity-1="ent0004" data-entity-2="ent0006" data-link-type="dependency" data-source-line="23" id="lnk12"><path d="M269.9644,153.8627 C291.2944,178.8627 316.06,207.8983 336.29,231.6083" fill="none" id="claude-backto-check" style="stroke:#1A1A1A;stroke-width:1;"/><polygon fill="#1A1A1A" points="266.07,149.2983,268.8686,158.7412,269.3153,153.102,274.9545,153.5487,266.07,149.2983" style="stroke:#1A1A1A;stroke-width:1;"/><text fill="#1A1A1A" font-family="sans-serif" font-size="13" lengthAdjust="spacing" textLength="62.7339" x="303.72" y="192.5166">No, revise</text></g><!--link check to validated--><g class="link" data-entity-1="ent0006" data-entity-2="ent0007" data-link-type="dependency" data-source-line="24" id="lnk13"><path d="M361,291.6483 C361,316.0183 361,344.4783 361,367.8783" fill="none" id="check-to-validated" style="stroke:#1A1A1A;stroke-width:1;"/><polygon fill="#1A1A1A" points="361,373.8783,365,364.8783,361,368.8783,357,364.8783,361,373.8783" style="stroke:#1A1A1A;stroke-width:1;"/><text fill="#1A1A1A" font-family="sans-serif" font-size="13" lengthAdjust="spacing" textLength="21.9692" x="362" y="340.7566">Yes</text></g><!--link validated to build--><g class="link" data-entity-1="ent0007" data-entity-2="ent0015" data-link-type="dependency" data-source-line="34" id="lnk20"><path d="M361,427.6183 C361,453.5683 361,487.2683 361,513.1583" fill="none" id="validated-to-build" style="stroke:#1A1A1A;stroke-width:1;"/><polygon fill="#1A1A1A" points="361,519.1583,365,510.1583,361,514.1583,357,510.1583,361,519.1583" style="stroke:#1A1A1A;stroke-width:1;"/></g><!--link build to qa--><g class="link" data-entity-1="ent0015" data-entity-2="ent0016" data-link-type="dependency" data-source-line="35" id="lnk21"><path d="M410.37,545.8983 C421.86,545.8983 427.35,545.8983 438.84,545.8983" fill="none" id="build-to-qa" style="stroke:#1A1A1A;stroke-width:1;"/><polygon fill="#1A1A1A" points="444.84,545.8983,435.84,541.8983,439.84,545.8983,435.84,549.8983,444.84,545.8983" style="stroke:#1A1A1A;stroke-width:1;"/></g><!--link qa to bugs--><g class="link" data-entity-1="ent0016" data-entity-2="ent0017" data-link-type="dependency" data-source-line="36" id="lnk22"><path d="M514.95,580.7683 C512.45,608.6283 509.5075,641.2224 507.3975,664.6824" fill="none" id="qa-to-bugs" style="stroke:#1A1A1A;stroke-width:1;"/><polygon fill="#1A1A1A" points="506.86,670.6583,511.6501,662.0528,507.3079,665.6784,503.6823,661.3361,506.86,670.6583" style="stroke:#1A1A1A;stroke-width:1;"/></g><!--reverse link fix to bugs--><g class="link" data-entity-1="ent0018" data-entity-2="ent0017" data-link-type="dependency" data-source-line="37" id="lnk24"><path d="M408.21,692.3683 C426.06,692.3683 440.56,692.3683 458.53,692.3683" fill="none" id="fix-backto-bugs" style="stroke:#1A1A1A;stroke-width:1;"/><polygon fill="#1A1A1A" points="402.21,692.3683,411.21,696.3683,407.21,692.3683,411.21,688.3683,402.21,692.3683" style="stroke:#1A1A1A;stroke-width:1;"/><text fill="#1A1A1A" font-family="sans-serif" font-size="13" lengthAdjust="spacing" textLength="21.9692" x="420.08" y="685.9366">Yes</text></g><!--reverse link qa to fix--><g class="link" data-entity-1="ent0016" data-entity-2="ent0018" data-link-type="dependency" data-source-line="38" id="lnk26"><path d="M473.2758,584.9462 C462.2458,594.4562 454.87,600.9183 444,610.6383 C423.72,628.7583 401.23,649.6583 384.19,665.6483" fill="none" id="qa-backto-fix" style="stroke:#1A1A1A;stroke-width:1;"/><polygon fill="#1A1A1A" points="477.82,581.0283,468.3918,583.8758,474.0332,584.2933,473.6157,589.9347,477.82,581.0283" style="stroke:#1A1A1A;stroke-width:1;"/><text fill="#1A1A1A" font-family="sans-serif" font-size="13" lengthAdjust="spacing" textLength="57.605" x="445" y="624.2066">Re-verify</text></g><!--link bugs to review--><g class="link" data-entity-1="ent0017" data-entity-2="ent0019" data-link-type="dependency" data-source-line="39" id="lnk27"><path d="M551.28,692.3683 C567.6,692.3683 580.35,692.3683 598.28,692.3683" fill="none" id="bugs-to-review" style="stroke:#1A1A1A;stroke-width:1;"/><polygon fill="#1A1A1A" points="604.28,692.3683,595.28,688.3683,599.28,692.3683,595.28,696.3683,604.28,692.3683" style="stroke:#1A1A1A;stroke-width:1;"/><text fill="#1A1A1A" font-family="sans-serif" font-size="13" lengthAdjust="spacing" textLength="17.5894" x="569.19" y="685.9366">No</text></g><!--link review to ship--><g class="link" data-entity-1="ent0019" data-entity-2="ent0028" data-link-type="dependency" data-source-line="44" id="lnk29"><path d="M747.9,692.3683 C759.29,692.3683 764.68,692.3683 776.07,692.3683" fill="none" id="review-to-ship" style="stroke:#1A1A1A;stroke-width:1;"/><polygon fill="#1A1A1A" points="782.07,692.3683,773.07,688.3683,777.07,692.3683,773.07,696.3683,782.07,692.3683" style="stroke:#1A1A1A;stroke-width:1;"/></g><!--link claude to GMN30--><g class="link" data-entity-1="ent0004" data-entity-2="ent0031" data-link-type="association" data-source-line="47" id="lnk32"><path d="M309.65,142.5883 C315.52,144.7483 321.36,146.8983 327,148.9483 C370.4,164.7483 481.49,203.8783 559.63,231.3283" fill="none" id="claude-GMN30" style="stroke:#1A1A1A;stroke-width:1;stroke-dasharray:7,7;"/></g><?plantuml-src TLJ9Rjim4BthAmR98QbZTm6wf4QGmdRiea3HfasHee0l33MIYD2aGb9UKFJVErnaAMugNiHPtymypWbS_PZ0r32LZ-7uvSltRnSBEAsDM36pUpQ4urSJV-3KuTRv-oHySBfg7EPUi0WVdDwLpxBCtWjLCyDMSCVuVMbqe_APbjgqTZsBeEJQA3HmtfDFZD6Rv1IpzvGv5goHRg6L-v-9qWwdskHeaaMiwj3Y4D_yVF7wCJxaZgbIFXaiSy99X0lkfUCalRp2DKfThr0v-A6rv1KJQWmpoPeSuGokqTGIjyBjw59QHnWkNeGGbrcspmT7Wy6rP0g-Oo4KXcYVjQu7WoDW5cglId3XTmRGSvmONWb7zyOmkLJV6hHEQ1Ny7jA5Hl66phl7deD1H3aOBDL7f9amXy1rXORIBrMELfGAQgDhRPaC0NaiwtWscx-dbXo4wshr8M-P5BaFoKfgYNLGingD7IxLrv-Jc-iXp6xdTWX2SP5JGXihxThLOQvmoqggucY-zgOSbyesTQsDiotC3n5UXVp-wM9RDFbIzJg6mMtTwhfPGzUxaH5bvKQNgNXIfIxi5HreKlOg6ELwexoZX-Nz0hoHnA8B1sFueeU4T2qiTZR9iqCsXbzeipy7dFcqeboUBSn3JMmH96oRSCWMkn65Wxj6I6h46SIheqg3Pv3ltyN1T2DvuSK3yzETqekrQAWOulzI2UMmD05522TK6Hd8Uk7sSvms9Ksky4_nGqfSsgVdDd5w9JWKOklnShrQYOYL9F_ZOOlKDnKt7ksLA0fWYicT5UIg3J48UMFybDP2om0yCZ0wxKDJx6u8xLX2dqWJ-xNdmGFpl64ziz86AogkdRg77MS9uN_KrC6JXDznj4OZYjtUfmsSC7cg753WfX9rW6tffwDlSjW7yDeiyqiGxhIZbe8kEZxFjnobz3k7EIZZ9g01UZQcRG3nbTdd99jAeNAmjNPZmBoabS5iA4Sug9XL9muiedgU8PdvbFyaVlHURXfJC8w-yKoEDjfGHp6zSv_kEcwDj2re6-KDzzFo2TFg8DUm3BpvbSO8OQTSHQ0jafdJgO0UgBy0?></g></svg>